<?xml version="1.0" encoding="UTF-8"?>
<svg id="_레이어_2" data-name="레이어 2" xmlns="http://www.w3.org/2000/svg" viewBox="0 0 205.49 48.96">
  <defs>
    <style>
      .cls-1 {
        fill: #000;
        stroke-width: 0px;
      }
    </style>
  </defs>
  <g id="_레이어_1-2" data-name="레이어 1">
    <g>
      <path class="cls-1" d="M0,48.96l4.61-14.11h23.26l4.61,14.11h-6.77l-2.45-7.78h-14.04l-2.38,7.78H0ZM11.45,33.99h-6.55L15.99,0h.58l11.02,33.99h-6.55l-4.75-15.27-4.82,15.27Z"/>
      <path class="cls-1" d="M51.19,35.43v9.94h-5.76v-9.94h-9.94v-5.76h9.94v-9.94h5.76v9.94h9.94v5.76h-9.94Z"/>
      <path class="cls-1" d="M74.81,48.96h-6.34V0h.58l5.76,8.93v40.04ZM75.82,22.47v-11.95l12.46,20.02L107.5,0h.58v48.96h-6.34v-27.15l-13.18,19.51h-.58l-12.17-18.87Z"/>
      <path class="cls-1" d="M113.83,48.96l4.61-14.11h23.26l4.61,14.11h-6.77l-2.45-7.78h-14.04l-2.38,7.78h-6.84ZM125.28,33.99h-6.55L129.82,0h.58l11.02,33.99h-6.55l-4.75-15.27-4.82,15.27Z"/>
      <path class="cls-1" d="M162.14,48.96h-6.34V7.2h-10.95V.86h17.28v48.1ZM163.15,7.2V.86h9.94v6.34h-9.94Z"/>
      <path class="cls-1" d="M179.57.86h6.34v21.31h16.13v6.34h-16.13v20.45h-6.34V.86ZM186.91,7.2V.86h18.58v6.34h-18.58ZM186.91,48.96v-6.34h18.58v6.34h-18.58Z"/>
    </g>
  </g>
</svg>